<svg preserveAspectRatio="none" width="100%" height="100%" overflow="visible" style="display: block;" viewBox="0 0 26 26" fill="none" xmlns="http://www.w3.org/2000/svg">
<g id="&#230;&#182;&#136;&#230;&#129;&#175;">
<g id="&#231;&#159;&#169;&#229;&#189;&#162;">
</g>
<path id="&#229;&#189;&#162;&#231;&#138;&#182;" d="M13.1001 3.10039C6.47268 3.10039 1.10039 7.54804 1.10039 13.0348C1.10039 16.9137 3.78783 20.2714 7.70348 21.9068L6.5048 23.1723C6.14427 23.5525 6.50532 24.1679 7.01297 24.0389L11.5663 22.8853C12.0693 22.9387 12.5806 22.9687 13.1006 22.9687C19.7281 22.9687 25.1004 18.5211 25.1004 13.0343C25.0999 7.54803 19.7276 3.10039 13.1001 3.10039ZM5.95364 13.0343C5.95364 12.1469 6.67316 11.4274 7.56051 11.4274C8.44786 11.4274 9.16738 12.1469 9.16738 13.0343C9.16738 13.9217 8.44786 14.6412 7.56051 14.6412C6.67316 14.6412 5.95364 13.9217 5.95364 13.0343ZM13.1001 15.1929C11.9082 15.1929 10.9421 14.2268 10.9421 13.0348C10.9421 11.8429 11.9082 10.8768 13.1001 10.8768C14.2921 10.8768 15.2582 11.8429 15.2582 13.0348C15.2582 14.2262 14.2921 15.1929 13.1001 15.1929ZM18.6397 14.6412C17.7524 14.6412 17.0329 13.9217 17.0329 13.0343C17.0329 12.1469 17.7524 11.4274 18.6397 11.4274C19.5271 11.4274 20.2466 12.1469 20.2466 13.0343C20.2466 13.9217 19.5271 14.6412 18.6397 14.6412Z" fill="var(--fill-0, white)"/>
</g>
</svg>
